<?xml version="1.0" encoding="utf-8"?>
<!-- Generator: Adobe Illustrator 19.0.0, SVG Export Plug-In . SVG Version: 6.00 Build 0)  -->
<svg version="1.1" id="Layer_1" xmlns="http://www.w3.org/2000/svg" xmlns:xlink="http://www.w3.org/1999/xlink" x="0px" y="0px"
	 viewBox="0 0 512 512" style="enable-background:new 0 0 512 512;" xml:space="preserve">
<style type="text/css">
	.st0{fill:#77B3D4;}
	.st1{fill:#6695B0;}
	.st2{fill:#E0E0D1;}
	.st3{fill:#BAB9AE;}
	.st4{fill:#597D93;}
	.st5{fill:#9C9A92;}
	.st6{fill:#FFFFFF;}
</style>
<g id="XMLID_1_">
	<path id="XMLID_3_" class="st0" d="M256,0c141,0,256,115,256,256S397,512,256,512S0,397,0,256S115,0,256,0"/>
	<path id="XMLID_4_" class="st1" d="M96.1,192.2L96.1,192.2v159.9c0,17.3,14.2,32.3,32.3,32.3h256c17.3,0,32.3-14.2,32.3-32.3v-15.8
		c0,17.3-14.2,32.3-32.3,32.3H127.6l0,0h-0.8c-3.2,0-5.5-0.8-8.7-1.6c-3.9-1.6-7.9-3.2-10.2-5.5c-3.2-2.4-6.3-5.5-7.9-9.5l0,0
		c-2.4-4.7-3.9-10.2-3.9-15.8V192.2"/>
	<path id="XMLID_5_" class="st2" d="M415.9,336.3c0,17.3-14.2,32.3-32.3,32.3h-256c-17.3,0-32.3-14.2-32.3-32.3V175.7
		c0-17.3,14.2-32.3,32.3-32.3h256c17.3,0,32.3,14.2,32.3,32.3L415.9,336.3"/>
	<path id="XMLID_8_" class="st3" d="M300.9,256l-7.9,7.1l113.4,85.1c1.6,1.6,2.4,2.4,3.2,3.2c0,0,0-0.8,0.8-0.8
		c-0.8-1.6-2.4-3.2-3.9-4.7L300.9,256 M211.1,256L104,345.8c-1.6,1.6-2.4,3.2-3.9,4.7c0,0,0,0.8,0.8,0.8c1.6-1.6,2.4-2.4,3.2-3.2
		l115-85.1L211.1,256"/>
	<path id="XMLID_9_" class="st4" d="M118.9,366.3c2.4,0.8,5.5,1.6,8.7,1.6h0.8C124.5,367.9,122.1,367.9,118.9,366.3"/>
	<path id="XMLID_10_" class="st3" d="M400.9,361.6c-4.7,3.2-11,5.5-18.1,5.5h-256c-5.5,0-10.2-1.6-15-3.2c2.4,1.6,3.9,2.4,6.3,3.2
		c3.2,0.8,6.3,1.6,9.5,1.6h255.2C389.9,367.9,396.2,365.5,400.9,361.6"/>
	<path id="XMLID_11_" class="st2" d="M284.4,256c-15-15-41-15-55.9,0L104,348.2c-1.6,1.6-2.4,2.4-3.9,3.9c5.5,9.5,15.8,15,27.6,15
		h256c11.8,0,21.3-6.3,27.6-15c-0.8-1.6-2.4-2.4-3.9-3.9L284.4,256"/>
	<path id="XMLID_14_" class="st1" d="M384.4,144.1L384.4,144.1L384.4,144.1 M384.4,144.1H127.6l0,0l0,0H384.4L384.4,144.1
		L384.4,144.1"/>
	<path id="XMLID_15_" class="st3" d="M384.4,144.1H127.6l0,0c-11,0-21.3,7.1-26.8,17.3L211.1,256l17.3-14.2
		c7.9-8.7,18.1-12.6,28.4-12.6c10.2,0,20.5,3.9,28.4,12.6l17.3,14.2l106.3-89.8c1.6-1.6,3.2-3.2,3.9-4.7
		C405.7,151.2,396.2,144.1,384.4,144.1L384.4,144.1L384.4,144.1L384.4,144.1"/>
	<path id="XMLID_16_" class="st5" d="M256,229.2c-10.2,0-20.5,3.9-28.4,12.6L211.1,256l7.9,7.1l8.7-6.3c7.9-7.9,18.1-11,28.4-11
		s20.5,3.9,28.4,11l8.7,7.1l7.9-7.1l-17.3-14.2C276.5,233.2,266.2,229.2,256,229.2"/>
	<path id="XMLID_17_" class="st3" d="M256,245c-10.2,0-20.5,3.9-28.4,11l-8.7,6.3l8.7,7.9c7.9,8.7,18.1,12.6,28.4,12.6
		s20.5-3.9,28.4-12.6l8.7-7.9l-8.7-6.3C276.5,248.1,266.2,245,256,245"/>
	<path id="XMLID_18_" class="st6" d="M227.6,256c15,15,41,15,55.9,0l123.7-92.2c1.6-1.6,2.4-2.4,3.9-3.9c-5.5-9.5-15.8-15-27.6-15
		h-256c-11.8,0-21.3,6.3-27.6,15c0.8,1.6,2.4,2.4,3.9,3.9L227.6,256z"/>
</g>
</svg>
