<?xml version="1.0" encoding="utf-8"?>
<!-- Generator: Adobe Illustrator 19.0.0, SVG Export Plug-In . SVG Version: 6.00 Build 0)  -->
<svg version="1.1" id="Layer_1" xmlns="http://www.w3.org/2000/svg" xmlns:xlink="http://www.w3.org/1999/xlink" x="0px" y="0px"
	 viewBox="0 0 512 512" style="enable-background:new 0 0 512 512;" xml:space="preserve">
<style type="text/css">
	.st0{fill:#77B3D4;}
	.st1{fill:#6695B0;}
	.st2{fill:#FFFFFF;}
</style>
<g id="XMLID_1_">
	<path id="XMLID_3_" class="st0" d="M256,0c141,0,256,115,256,256S397,512,256,512S0,397,0,256S115,0,256,0"/>
	<path id="XMLID_4_" class="st1" d="M182,144.1c-46.5,7.9-52.8,34.7-53.6,36.2c0,1.6,0,3.2,0,4.7C183.5,356,297.7,387.5,335.6,397.8
		c3.2,0.8,5.5,1.6,7.1,2.4c0.8,0,1.6,0.8,2.4,0.8c1.6,0,2.4,0,3.9-0.8c0.8-0.8,28.4-13.4,35.4-55.1c0-1.6,0-3.9-0.8-5.5
		c-0.8-0.8-15-28.4-54.4-37.8c-0.8,0-1.6,0-2.4,0c-2.4,0-3.9,0.8-6.3,1.6c-12.6,10.2-29.9,21.3-37,22.8
		c-49.6-23.6-78-70.9-78.8-80.3c-0.8-4.7,10.2-22.1,23.6-37c1.6-1.6,2.4-4.7,2.4-7.1c-3.2-38.6-43.3-56.7-44.9-57.5
		C185.1,144.1,183.5,144.1,182,144.1"/>
	<path id="XMLID_5_" class="st2" d="M232.4,186.7c-3.2-38.6-43.3-56.7-44.9-57.5c-2.4-0.8-3.9-0.8-5.5-0.8
		c-46.5,7.9-52.8,34.7-53.6,36.2c0,1.6,0,3.2,0,4.7C183.5,340.3,297.7,371.8,335.6,382c3.2,0.8,5.5,1.6,7.1,2.4
		c0.8,0,1.6,0.8,2.4,0.8c1.6,0,2.4,0,3.9-0.8c0.8-0.8,28.4-13.4,35.4-55.1c0-1.6,0-3.9-0.8-5.5c-0.8-0.8-15-28.4-54.4-37.8
		c-2.4-0.8-5.5,0-7.9,1.6c-12.6,10.2-29.9,21.3-37,22.8c-49.6-23.6-78-70.9-78.8-80.3c-0.8-4.7,10.2-22.1,23.6-37
		C231.6,192.2,232.4,189,232.4,186.7z"/>
</g>
</svg>
